<svg width="58" height="50" viewBox="0 0 58 50" fill="none" xmlns="http://www.w3.org/2000/svg">
<path d="M8.32584 14.3558C6.79316 12.8231 5.94955 10.7913 5.94955 8.6289C5.94955 6.46654 6.79316 4.43479 8.32584 2.90211C8.78923 2.43872 9.53777 2.43872 10.0011 2.90211C10.4645 3.36543 10.4645 4.12586 10.0011 4.58925C8.91991 5.67043 8.32584 7.09622 8.32584 8.6289C8.32584 10.1616 8.91991 11.5993 10.0011 12.6805C10.4645 13.1439 10.4645 13.8924 10.0011 14.3558C9.77534 14.5934 9.46649 14.7004 9.16945 14.7004C8.86052 14.7004 8.55159 14.5934 8.32584 14.3558Z" fill="#E40000"/>
<path d="M30.6036 12.6805C31.6848 11.5993 32.2788 10.1616 32.2788 8.6289C32.2788 7.09622 31.6848 5.67043 30.6036 4.58925C30.1402 4.12586 30.1402 3.36543 30.6036 2.90211C31.067 2.43872 31.8274 2.43872 32.2907 2.90211C33.8235 4.43479 34.6551 6.46654 34.6551 8.6289C34.6551 10.7913 33.8235 12.8231 32.2907 14.3558C32.0531 14.5934 31.7561 14.7004 31.4472 14.7004C31.1502 14.7004 30.8412 14.5934 30.6036 14.3558C30.1402 13.8924 30.1402 13.1439 30.6036 12.6805Z" fill="#E40000"/>
<path d="M13.1616 11.8488C11.3913 10.0785 11.3913 7.19128 13.1616 5.40907C13.625 4.94568 14.3735 4.94568 14.8369 5.40907C15.3002 5.87246 15.3002 6.62093 14.8369 7.09621C14.4329 7.50021 14.2072 8.04671 14.2072 8.62889C14.2072 9.21114 14.4329 9.75764 14.8369 10.1735C15.3002 10.6369 15.3002 11.3854 14.8369 11.8488C14.6111 12.0864 14.3022 12.1933 14.0052 12.1933C13.6963 12.1933 13.3992 12.0864 13.1616 11.8488Z" fill="#E40000"/>
<path d="M37.1859 16.9222C36.9483 17.1479 36.6513 17.2667 36.3423 17.2667C36.0453 17.2667 35.7364 17.1479 35.4987 16.9222C35.0353 16.4588 35.0353 15.6983 35.4987 15.2349C39.1463 11.5992 39.1463 5.6704 35.4987 2.0228C35.0353 1.55947 35.0353 0.810938 35.4987 0.347545C35.9621 -0.115848 36.7226 -0.115848 37.1859 0.347545C41.7484 4.91005 41.7484 12.3478 37.1859 16.9222Z" fill="#E40000"/>
<path d="M25.7678 10.1735C26.1837 9.75764 26.4094 9.21114 26.4094 8.62889C26.4094 8.04671 26.1837 7.50021 25.7678 7.09621C25.3044 6.62093 25.3044 5.87246 25.7678 5.40907C26.2312 4.94568 26.9917 4.94568 27.455 5.40907C29.2254 7.19128 29.2254 10.0785 27.455 11.8488C27.2174 12.0864 26.9085 12.1933 26.6114 12.1933C26.3025 12.1933 26.0055 12.0864 25.7678 11.8488C25.3044 11.3854 25.3044 10.6369 25.7678 10.1735Z" fill="#E40000"/>
<path d="M5.10599 15.2349C5.56939 15.6983 5.56939 16.4588 5.10599 16.9222C4.88024 17.1479 4.57139 17.2667 4.26246 17.2667C3.96542 17.2667 3.65649 17.1479 3.43074 16.9222C-1.14358 12.3478 -1.14358 4.91005 3.43074 0.347545C3.89414 -0.115848 4.64267 -0.115848 5.10599 0.347545C5.56939 0.810938 5.56939 1.55947 5.10599 2.0228C1.47028 5.6704 1.47028 11.5992 5.10599 15.2349Z" fill="#E40000"/>
<path d="M53.1902 35.6591H21.4906V16.1023C21.4906 15.4489 20.9678 14.9142 20.3024 14.9142C19.649 14.9142 19.1143 15.4489 19.1143 16.1023V35.6591H10.7497C8.63484 35.6591 6.91202 37.3819 6.91202 39.4969V46.1623C6.91202 48.2773 8.63484 50 10.7497 50H53.1902C55.3051 50 57.0279 48.2773 57.0279 46.1623V39.4969C57.0279 37.3819 55.3051 35.6591 53.1902 35.6591ZM15.9776 45.5208C15.8706 45.6396 15.7399 45.7227 15.5973 45.7821C15.4548 45.8415 15.3003 45.8772 15.1458 45.8772C14.9795 45.8772 14.8369 45.8415 14.6825 45.7821C14.5399 45.7227 14.4211 45.6396 14.3023 45.5208C14.0766 45.295 13.9577 44.998 13.9577 44.6891C13.9577 44.3682 14.0766 44.0712 14.3023 43.8455C14.7419 43.4058 15.538 43.394 15.9776 43.8455C16.2033 44.0712 16.334 44.3682 16.334 44.6891C16.334 44.998 16.2033 45.295 15.9776 45.5208ZM16.2389 41.4217C16.1795 41.5642 16.0963 41.6949 15.9776 41.8138C15.8706 41.9207 15.7399 42.0038 15.5973 42.0632C15.4548 42.1226 15.3003 42.1583 15.1458 42.1583C14.9795 42.1583 14.8369 42.1226 14.6825 42.0632C14.5399 42.0038 14.4211 41.9207 14.3023 41.8138C14.1953 41.6949 14.1003 41.5642 14.0409 41.4217C13.9815 41.2791 13.9577 41.1246 13.9577 40.9702C13.9577 40.8157 13.9815 40.6612 14.0409 40.5187C14.1003 40.3642 14.1953 40.2454 14.3023 40.1266C14.3617 40.0791 14.4211 40.0197 14.4805 39.984C14.5518 39.9365 14.6112 39.9008 14.6825 39.8652C14.7656 39.8414 14.8369 39.8176 14.9082 39.8058C15.3003 39.7226 15.7043 39.8533 15.9776 40.1266C16.0963 40.2454 16.1795 40.3642 16.2389 40.5187C16.2984 40.6612 16.334 40.8157 16.334 40.9702C16.334 41.1246 16.2984 41.2791 16.2389 41.4217Z" fill="black"/>
</svg>
