<svg width="54" height="50" viewBox="0 0 54 50" fill="none" xmlns="http://www.w3.org/2000/svg">
<path d="M48.5022 3.75323e-05L2.9134 8.03857L3.20794 9.70897L48.7967 1.67044L48.5022 3.75323e-05Z" fill="#E40000"/>
<path d="M49.2729 22.484C49.4132 22.9067 49.5462 23.313 49.681 23.7156C49.6974 23.763 49.712 23.8121 49.7248 23.8595C49.7551 23.9887 49.8305 24.1029 49.9373 24.1817C50.0441 24.2604 50.1753 24.2986 50.3077 24.2895C50.7495 24.2706 51.1919 24.3061 51.625 24.3952C51.8424 24.4376 52.0488 24.5242 52.2315 24.6495C52.4142 24.7749 52.5693 24.9363 52.6871 25.1239C52.9058 25.4883 53.0733 25.8836 53.261 26.2662C53.2695 26.3065 53.2695 26.348 53.261 26.3883C53.261 30.7183 53.261 35.0489 53.261 39.3801C53.2345 39.6201 53.1635 39.853 53.0515 40.0669C52.8662 40.5068 52.5499 40.879 52.1458 41.1329C51.7416 41.3868 51.2691 41.5102 50.7924 41.4862C50.5683 41.4862 50.3423 41.4862 50.0964 41.4862V41.6684C50.0964 42.9437 50.1073 44.2372 50.0964 45.5198C50.0867 46.3663 49.7996 47.1862 49.2789 47.8537C48.7582 48.5211 48.0328 48.9993 47.2142 49.2146C46.7436 49.3634 46.2472 49.4124 45.7567 49.3585C45.3208 49.2965 44.8965 49.17 44.4977 48.9832C43.8572 48.7116 43.3095 48.2595 42.9213 47.6821C42.5332 47.1047 42.3213 46.4268 42.3115 45.7312C42.2532 44.4686 42.2678 43.2024 42.2514 41.9362C42.2514 41.5299 42.2186 41.4935 41.8123 41.4917C39.7548 41.4917 37.6979 41.4917 35.6416 41.4917H22.311C22.1816 41.4917 22.0541 41.4917 21.9247 41.4917C21.7425 41.4917 21.7425 41.4917 21.7425 41.6739C21.7425 42.9018 21.7261 44.1315 21.7425 45.3595C21.7561 46.2452 21.4714 47.1098 20.934 47.814C20.3967 48.5183 19.638 49.0212 18.7801 49.2419C18.3407 49.3778 17.8773 49.4182 17.421 49.3604C16.6596 49.2664 15.9376 48.9687 15.3313 48.4986C14.9239 48.1755 14.5917 47.7676 14.3576 47.3032C14.1235 46.8389 13.9933 46.3292 13.9759 45.8095C13.9285 44.434 13.9321 43.0585 13.9121 41.6848V41.488C13.7299 41.488 13.5368 41.4989 13.3655 41.488C13.0677 41.4871 12.7706 41.4579 12.4783 41.4006C12.1064 41.3049 11.7647 41.1168 11.4851 40.8537C11.2054 40.5906 10.9968 40.261 10.8786 39.8957C10.7792 39.6158 10.7323 39.3199 10.7402 39.023C10.7402 34.9031 10.7402 30.7839 10.7402 26.6652C10.7436 26.1669 10.8986 25.6814 11.1847 25.2733C11.3841 24.975 11.6529 24.7295 11.968 24.5578C12.2831 24.3861 12.6351 24.2935 12.9939 24.2877C13.2234 24.2731 13.4548 24.2877 13.6843 24.2877C13.7469 24.3007 13.8115 24.3011 13.8743 24.2889C13.937 24.2768 13.9967 24.2523 14.05 24.2169C14.1032 24.1814 14.1489 24.1358 14.1843 24.0826C14.2197 24.0294 14.2442 23.9696 14.2564 23.9069C14.271 23.8686 14.2874 23.8304 14.2983 23.7903C14.4386 23.3622 14.5807 22.9377 14.7264 22.4986L14.3202 22.382C13.2428 22.0759 12.1649 21.7686 11.0864 21.4601C10.8076 21.3994 10.5585 21.2437 10.3817 21.0198C10.205 20.7958 10.1114 20.5174 10.1171 20.2322C10.1228 20.1125 10.1424 19.9939 10.1754 19.8787C10.2884 19.467 10.4104 19.0552 10.5289 18.6471C10.5689 18.4833 10.6424 18.3295 10.7448 18.1953C10.8471 18.0612 10.976 17.9497 11.1234 17.8677C11.2709 17.7858 11.4337 17.7352 11.6016 17.7192C11.7696 17.7031 11.939 17.7219 12.0993 17.7745C13.2532 18.1 14.407 18.4303 15.5609 18.7656C15.6793 18.7984 15.7905 18.853 15.9253 18.904C15.9398 18.8676 15.9581 18.8275 15.9726 18.7856C16.6704 16.7014 17.3809 14.6154 18.066 12.5257C18.2392 11.9079 18.5797 11.3499 19.0498 10.9133C19.6592 10.3713 20.4559 10.0883 21.2706 10.1244C21.3672 10.1244 21.4638 10.1244 21.5603 10.1244C28.5405 10.1244 35.5214 10.1244 42.5028 10.1244C42.9113 10.1002 43.3211 10.1346 43.7198 10.2264C44.2293 10.3563 44.6974 10.6138 45.0799 10.9747C45.4624 11.3355 45.7467 11.7877 45.9061 12.2888C46.3014 13.4439 46.6767 14.608 47.0612 15.7649C47.3952 16.767 47.7304 17.7696 48.0668 18.7728L48.1197 18.9222C48.5838 18.7042 49.0853 18.5768 49.5972 18.5469C50.4535 18.3812 51.317 18.2463 52.177 18.0878C52.3443 18.0466 52.5183 18.0411 52.6879 18.0716C52.8575 18.1021 53.0188 18.168 53.1612 18.2649C53.3037 18.3618 53.4241 18.4876 53.5147 18.6341C53.6054 18.7806 53.6642 18.9446 53.6873 19.1153C53.7693 19.5489 53.8495 19.9825 53.9187 20.418C53.9491 20.576 53.9473 20.7386 53.9137 20.8959C53.8801 21.0533 53.8153 21.2022 53.723 21.3341C53.6308 21.4659 53.513 21.5779 53.3767 21.6634C53.2404 21.7489 53.0883 21.8061 52.9294 21.8318C51.7999 22.0413 50.6685 22.2344 49.5353 22.433C49.4469 22.4447 49.3592 22.4617 49.2729 22.484ZM23.364 39.9558V36.4268C23.364 36.2702 23.364 36.1153 23.3859 35.9568C23.3796 35.8733 23.3906 35.7894 23.4183 35.7103C23.4459 35.6313 23.4896 35.5588 23.5465 35.4974C23.6035 35.4361 23.6725 35.3871 23.7492 35.3536C23.826 35.3201 23.9088 35.3028 23.9926 35.3027C24.1521 35.2825 24.3127 35.2734 24.4735 35.2754H39.5787C39.6844 35.2754 39.7918 35.2754 39.8957 35.2754C39.9922 35.2703 40.0888 35.2857 40.179 35.3207C40.2691 35.3557 40.3508 35.4093 40.4187 35.4782C40.4865 35.5471 40.539 35.6296 40.5726 35.7203C40.6061 35.811 40.6201 35.9077 40.6135 36.0042C40.6135 36.1226 40.6135 36.2446 40.6135 36.3685V39.4657C40.6135 39.5568 40.6135 39.6479 40.6281 39.7427C40.6263 39.7704 40.6303 39.7983 40.6398 39.8244C40.6493 39.8506 40.6641 39.8745 40.6833 39.8946C40.7024 39.9148 40.7255 39.9308 40.7511 39.9417C40.7768 39.9525 40.8043 39.9579 40.8321 39.9576C40.9487 39.9576 41.0617 39.974 41.1783 39.974H50.6357C50.7575 39.9733 50.8791 39.966 51 39.9522C51.1749 39.9459 51.341 39.874 51.4653 39.7508C51.5895 39.6276 51.6628 39.462 51.6705 39.2872C51.6844 39.1662 51.6917 39.0446 51.6924 38.9228V26.9112C51.692 26.7822 51.6847 26.6532 51.6705 26.5249C51.6644 26.3432 51.5906 26.1702 51.4635 26.0401C51.3364 25.9099 51.1652 25.832 50.9836 25.8217C50.8629 25.8052 50.7412 25.7967 50.6193 25.7962H13.3819C13.24 25.7957 13.0982 25.8048 12.9574 25.8235C12.7894 25.8336 12.631 25.9054 12.5127 26.0251C12.3944 26.1448 12.3243 26.304 12.3161 26.4721C12.2987 26.6087 12.2896 26.7462 12.2888 26.8838C12.2888 30.8798 12.2888 34.8746 12.2888 38.8682C12.2883 39.0101 12.2974 39.1519 12.3161 39.2927C12.3228 39.4559 12.3892 39.6111 12.5027 39.7286C12.6162 39.8462 12.769 39.918 12.9319 39.9303C13.082 39.9531 13.2337 39.9635 13.3856 39.9613C16.6576 39.9613 19.9297 39.9613 23.2018 39.9613C23.2559 39.9626 23.3101 39.9608 23.364 39.9558ZM48.2181 24.2494C48.1707 24.0782 48.1415 23.9233 48.0905 23.7776C46.8589 20.0913 45.6255 16.4068 44.3903 12.7242C44.3211 12.5133 44.2067 12.32 44.055 12.1579C43.9033 11.9958 43.718 11.8689 43.5121 11.786C43.2482 11.6897 42.9671 11.65 42.6868 11.6694C35.5961 11.6694 28.5047 11.6694 21.4128 11.6694C21.3526 11.6694 21.2943 11.6694 21.2306 11.6694C20.8564 11.633 20.4814 11.7288 20.1706 11.9401C19.8598 12.1515 19.6327 12.465 19.5289 12.8262C19.5071 12.9064 19.487 12.9866 19.4633 13.0631C18.3289 16.4457 17.1951 19.8295 16.0619 23.2146C15.9453 23.5571 15.8415 23.9051 15.7303 24.2494C26.579 24.2494 37.4083 24.2494 48.2181 24.2494ZM39.0759 36.8076C38.9192 36.8076 38.7698 36.7821 38.6167 36.7821C35.7637 36.7821 32.9094 36.7821 30.0539 36.7821H25.277C24.9235 36.7821 24.8543 36.8513 24.8543 37.1957C24.8543 37.7532 24.8543 38.3088 24.8543 38.8663C24.8543 39.1013 24.8543 39.3364 24.8543 39.5714C24.8543 39.903 24.9362 39.9832 25.2733 39.985H27.6308C31.2624 39.985 34.8934 39.985 38.5238 39.985C38.706 39.985 38.8882 39.9686 39.0813 39.9595L39.0759 36.8076ZM48.5387 41.5044C48.5004 41.5044 48.4804 41.5044 48.464 41.5044H44.0478C43.8437 41.5044 43.7781 41.5755 43.7781 41.7977C43.7781 43.0573 43.7781 44.3174 43.7781 45.5782C43.7809 45.8776 43.8467 46.173 43.9712 46.4453C44.1935 46.9442 44.5814 47.3508 45.0691 47.5965C45.5568 47.8422 46.1145 47.9118 46.6476 47.7935C47.1784 47.6904 47.6567 47.4058 48.0007 46.9887C48.3447 46.5716 48.533 46.0478 48.5332 45.5071C48.5332 44.2974 48.5332 43.0876 48.5332 41.8779L48.5387 41.5044ZM15.4243 41.488V45.4452C15.4093 46.0241 15.6121 46.5876 15.9927 47.0241C16.3732 47.4607 16.9038 47.7385 17.4793 47.8026C17.8114 47.8533 18.1505 47.8321 18.4736 47.7401C18.7966 47.6482 19.0961 47.4878 19.3517 47.2699C19.6074 47.0519 19.8131 46.7816 19.9549 46.4771C20.0968 46.1726 20.1715 45.8412 20.1739 45.5053C20.1903 44.3156 20.1884 43.1222 20.1939 41.9326C20.1939 41.5409 20.1411 41.4844 19.7494 41.4844H15.4243V41.488ZM52.8165 20.6366C52.8165 20.6203 52.8165 20.6056 52.8165 20.5929C52.7399 20.1538 52.6652 19.7148 52.5851 19.2757C52.5831 19.2535 52.5763 19.232 52.5649 19.2129C52.5535 19.1938 52.538 19.1775 52.5194 19.1652C52.5008 19.1529 52.4797 19.145 52.4576 19.1421C52.4356 19.1391 52.4131 19.1412 52.392 19.1481C52.2699 19.17 52.1496 19.1919 52.0276 19.2119C50.9697 19.3965 49.9112 19.5824 48.8521 19.7694C48.7027 19.7949 48.6589 19.855 48.6844 19.9953C48.7555 20.4071 48.8284 20.8188 48.903 21.2287C48.9358 21.4109 48.9887 21.4419 49.1709 21.4109L51.1513 21.0629L52.6707 20.7915C52.7728 20.7733 52.8237 20.7313 52.8237 20.6311L52.8165 20.6366ZM11.6748 18.7838C11.6258 18.8345 11.5847 18.8922 11.5528 18.955C11.4289 19.3577 11.3159 19.7676 11.1993 20.1721C11.1556 20.3233 11.1884 20.3761 11.3432 20.4235L14.7592 21.4018C14.9105 21.4455 14.9669 21.4164 15.0107 21.2579C15.1273 20.8607 15.2403 20.4617 15.3532 20.0682C15.4024 19.886 15.3732 19.8423 15.1929 19.7913L11.8425 18.833C11.7882 18.8114 11.7321 18.795 11.6748 18.7838Z" fill="black"/>
<path d="M0 1.16449H4.0391V7.77244C4.0391 9.71821 4.0391 9.60889 4.0391 9.69088C4.0391 9.73278 4.0391 9.77286 4.0391 9.81476V49.9999H0C0 33.7245 0 17.446 0 1.16449ZM1.27532 2.45438V48.721H2.73282V2.45438H1.27532Z" fill="black"/>
<path d="M46.9715 29.0085C47.5837 29.0146 48.1804 29.2021 48.6862 29.5471C49.1919 29.8922 49.5841 30.3795 49.8131 30.9474C50.042 31.5152 50.0974 32.1381 49.9725 32.7374C49.8476 33.3368 49.5479 33.8856 49.1112 34.3147C48.6744 34.7438 48.1203 35.0339 47.5188 35.1482C46.9173 35.2625 46.2955 35.1961 45.7318 34.9572C45.1681 34.7183 44.688 34.3176 44.3519 33.8058C44.0158 33.2941 43.8388 32.6943 43.8435 32.082C43.8454 31.6743 43.928 31.2709 44.0865 30.8953C44.2451 30.5197 44.4765 30.1792 44.7673 29.8934C45.0581 29.6077 45.4026 29.3824 45.781 29.2305C46.1593 29.0785 46.5638 29.0032 46.9715 29.0085ZM45.3555 32.0929C45.3555 32.3049 45.3975 32.5148 45.4788 32.7105C45.56 32.9063 45.6791 33.084 45.8292 33.2336C45.9794 33.3832 46.1576 33.5017 46.3537 33.5823C46.5497 33.6629 46.7595 33.7042 46.9715 33.7035C47.3974 33.7035 47.8061 33.5343 48.1073 33.2332C48.4084 32.932 48.5776 32.5233 48.5776 32.0974C48.5776 31.6714 48.4084 31.263 48.1073 30.9618C47.8061 30.6606 47.3974 30.4914 46.9715 30.4914C46.5455 30.4919 46.1371 30.6602 45.8346 30.96C45.532 31.2598 45.3599 31.667 45.3555 32.0929Z" fill="#E40000"/>
<path d="M17.02 29.0102C17.6329 29.012 18.2315 29.1957 18.74 29.538C19.2485 29.8802 19.6441 30.3655 19.8766 30.9326C20.1091 31.4998 20.168 32.1233 20.0459 32.724C19.9239 33.3247 19.6265 33.8755 19.1912 34.307C18.7558 34.7385 18.2022 35.0312 17.6005 35.1479C16.9987 35.2646 16.3759 35.2001 15.8108 34.9627C15.2457 34.7252 14.7638 34.3253 14.4261 33.8138C14.0883 33.3022 13.9101 32.702 13.9137 32.0891C13.9185 31.2692 14.2481 30.4847 14.8304 29.9076C15.4127 29.3304 16.2001 29.0078 17.02 29.0102ZM17.02 33.6888C17.4433 33.6922 17.8507 33.5277 18.1529 33.2313C18.4551 32.9349 18.6275 32.5306 18.6323 32.1073C18.6323 31.6811 18.463 31.2724 18.1617 30.9711C17.8603 30.6697 17.4516 30.5005 17.0254 30.5005C16.5993 30.5005 16.1905 30.6697 15.8891 30.9711C15.5878 31.2724 15.4185 31.6811 15.4185 32.1073C15.419 32.3169 15.461 32.5243 15.5423 32.7176C15.6235 32.9108 15.7424 33.0861 15.8919 33.2331C16.0414 33.38 16.2185 33.4956 16.4131 33.5736C16.6077 33.6515 16.8159 33.6901 17.0254 33.687L17.02 33.6888Z" fill="#E40000"/>
</svg>
