<svg width="55" height="50" viewBox="0 0 55 50" fill="none" xmlns="http://www.w3.org/2000/svg">
<path d="M13.3862 27.6959L16.1785 30.4882C16.491 30.8007 16.6667 31.2246 16.6667 31.6667V48.3333C16.6667 49.2538 15.9205 50 15 50C14.0795 50 13.3333 49.2538 13.3333 48.3333V32.357L11.0292 30.0529C11.9511 29.4175 12.7508 28.6177 13.3862 27.6959ZM21.6667 15H25V48.3333C25 49.2538 24.2538 50 23.3333 50C22.4129 50 21.6667 49.2538 21.6667 48.3333V15ZM35.301 20.6753C35.9947 21.554 36.8457 22.3026 37.8117 22.8787L33.3333 27.357V48.3333C33.3333 49.2538 32.5871 50 31.6667 50C30.7462 50 30 49.2538 30 48.3333V26.6667C30 26.2246 30.1756 25.8007 30.4882 25.4882L35.301 20.6753ZM43.4763 38.0474L41.6667 39.857V48.3333C41.6667 49.2538 40.9205 50 40 50C39.0795 50 38.3333 49.2538 38.3333 48.3333V39.1667C38.3333 38.7246 38.5089 38.3007 38.8215 37.9882L41.1193 35.6904L43.4763 38.0474ZM19.1667 0H27.5C28.4205 0 29.1667 0.746193 29.1667 1.66667V10C29.1667 10.9205 28.4205 11.6667 27.5 11.6667H19.1667C18.2462 11.6667 17.5 10.9205 17.5 10V1.66667C17.5 0.746193 18.2462 0 19.1667 0ZM5.83333 28.3333C2.61167 28.3333 0 25.7217 0 22.5C0 19.2783 2.61167 16.6667 5.83333 16.6667C9.05499 16.6667 11.6667 19.2783 11.6667 22.5C11.6667 25.7217 9.05499 28.3333 5.83333 28.3333ZM42.5 20.8333C39.2783 20.8333 36.6667 18.2217 36.6667 15C36.6667 11.7783 39.2783 9.16667 42.5 9.16667C45.7217 9.16667 48.3333 11.7783 48.3333 15C48.3333 18.2217 45.7217 20.8333 42.5 20.8333ZM49.5118 37.0118C48.8609 37.6627 47.8057 37.6627 47.1548 37.0118L42.1548 32.0118C41.504 31.361 41.504 30.3057 42.1548 29.6548L47.1548 24.6548C47.8057 24.0039 48.8609 24.0039 49.5118 24.6548L54.5118 29.6548C55.1627 30.3057 55.1627 31.361 54.5118 32.0118L49.5118 37.0118Z" fill="black"/>
</svg>
