<svg width="49" height="50" viewBox="0 0 49 50" fill="none" xmlns="http://www.w3.org/2000/svg">
<path d="M48.0512 24.9443C47.9956 25 47.9956 25.0557 47.9399 25.1114L48.0512 24.9443Z" fill="black"/>
<path d="M0 44.4877C0 47.5501 2.44989 50 5.51225 50H40.8129C43.8753 50 46.3251 47.5501 46.3251 44.4877V44.3764C46.3251 41.314 43.8753 38.8641 40.8129 38.8641H5.51225C2.44989 38.8641 0 41.314 0 44.3764V44.4877ZM5.56793 41.9265C6.79287 41.9265 7.7951 42.9287 7.7951 44.2093C7.7951 45.49 6.79287 46.4922 5.56793 46.4922C4.34298 46.4922 3.34076 45.49 3.34076 44.2093C3.34076 42.9287 4.34298 41.9265 5.56793 41.9265Z" fill="black"/>
<path d="M36.5814 0C31.2362 0 26.8375 4.34298 26.8375 9.74387C26.8375 12.2494 27.7841 14.4766 29.2874 16.2027L35.6348 24.7773C36.0803 25.3897 37.0268 25.3897 37.4723 24.7773L43.8197 16.2027C45.323 14.4766 46.2696 12.2494 46.2696 9.74387C46.3253 4.34298 41.9823 0 36.5814 0ZM36.5814 14.755C33.7974 14.755 31.5146 12.4722 31.5146 9.68819C31.5146 6.90423 33.7974 4.62138 36.5814 4.62138C39.3654 4.62138 41.6482 6.90423 41.6482 9.68819C41.6482 12.5278 39.3654 14.755 36.5814 14.755Z" fill="#C70808"/>
<path d="M1.22507 11.0245V32.9065C1.22507 34.2985 2.33865 35.412 3.73063 35.412H42.6504C44.0424 35.412 45.156 34.2985 45.156 32.9065V22.9399C45.156 22.5501 44.8219 22.2717 44.4879 22.2717H42.205C41.8152 22.2717 41.5368 22.6058 41.5368 22.9399V31.0691C41.5368 31.4588 41.2028 31.7372 40.8687 31.7372H5.56805C5.17829 31.7372 4.8999 31.4031 4.8999 31.0691V12.8063C4.8999 12.4165 5.23397 12.1381 5.56805 12.1381H23.5524C23.9422 12.1381 24.2206 11.804 24.2206 11.47V9.18712C24.2206 8.79737 23.8865 8.51897 23.5524 8.51897H3.73063C2.33865 8.46329 1.22507 9.63255 1.22507 11.0245Z" fill="black"/>
</svg>
