<svg width="31" height="50" viewBox="0 0 31 50" fill="none" xmlns="http://www.w3.org/2000/svg">
<path d="M25.8947 25.4737C28.3158 25.4737 30.3158 23.4737 30.3158 21.0526C30.3158 18.6316 28.3684 16.5789 25.8947 16.5789C23.4737 16.5789 21.4737 18.5789 21.4737 21C21.4737 21.9474 21.7368 22.7895 22.2632 23.4737C20.8421 25.7368 19.2632 29.2105 18.4211 33.8947H16.5263V19.6316C18.2632 19.0526 19.5789 17.421 19.5789 15.4737C19.5789 13.0526 17.5789 11.0526 15.1579 11.0526C12.7368 11.0526 10.7368 13.0526 10.7368 15.4737C10.7368 17.421 12 19.0526 13.7895 19.6316V33.9474H11.8947C11.0526 29.2631 9.47368 25.8421 8.05263 23.5263C8.52632 22.7895 8.8421 21.9474 8.8421 21.0526C8.8421 18.6316 6.84211 16.6316 4.42105 16.6316C2 16.6316 0 18.6316 0 21.0526C0 23.4737 2 25.4737 4.42105 25.4737C4.89474 25.4737 5.36842 25.3684 5.8421 25.2105C7 27.1579 8.31579 30.0526 9.10526 33.9474H7.47368C6.73684 33.9474 6.10526 34.5789 6.10526 35.3158V39.7368H5.36842C4.63158 39.7368 4 40.3684 4 41.1052V48.6316C4 49.3684 4.63158 50 5.36842 50C6.10526 50 6.73684 49.3684 6.73684 48.6316V42.4737H23.6842V48.6316C23.6842 49.3684 24.3158 50 25.0526 50C25.7895 50 26.4211 49.3684 26.4211 48.6316V41.0526C26.4211 40.3158 25.7895 39.6842 25.0526 39.6842H24.3158V35.2631C24.3158 34.4737 23.6842 33.8947 22.9474 33.8947H21.3158C22.0526 30 23.3684 27.1052 24.5263 25.1579C24.9474 25.3684 25.4211 25.4737 25.8947 25.4737ZM15.1579 13.7895C16.1053 13.7895 16.8421 14.5263 16.8421 15.4737C16.8421 16.421 16.1053 17.1579 15.1579 17.1579C14.2105 17.1579 13.4737 16.421 13.4737 15.4737C13.4737 14.5263 14.2105 13.7895 15.1579 13.7895ZM2.73684 21C2.73684 20.0526 3.47368 19.3158 4.42105 19.3158C5.36842 19.3158 6.10526 20.0526 6.10526 21C6.10526 21.9474 5.36842 22.6842 4.42105 22.6842C3.47368 22.6842 2.73684 21.9474 2.73684 21ZM21.5263 39.6842H8.8421V36.6842H21.5263V39.6842ZM25.8947 19.3684C26.8421 19.3684 27.5789 20.1052 27.5789 21.0526C27.5789 22 26.8421 22.7368 25.8947 22.7368C24.9474 22.7368 24.2105 22 24.2105 21.0526C24.2632 20.1052 25 19.3684 25.8947 19.3684Z" fill="black"/>
<path d="M7.94738 8.6842C7.42106 9.26315 7.4737 10.1053 8.00001 10.6316C8.57896 11.1579 9.42106 11.1053 9.94738 10.5789C11.3158 9.10525 13.1579 8.31578 15.1579 8.31578C17.1579 8.31578 19 9.10525 20.3684 10.5789C20.6316 10.8947 21 11 21.3684 11C21.6842 11 22.0526 10.8947 22.3158 10.6316C22.8947 10.1053 22.8947 9.26315 22.3684 8.6842C20.4737 6.6842 17.8947 5.52631 15.1579 5.52631C12.3684 5.52631 9.78948 6.63157 7.94738 8.6842Z" fill="#E40000"/>
<path d="M5 7.05263C5.36842 7.05263 5.73684 6.89474 6 6.63158C8.42105 4.10526 11.6316 2.73684 15.1579 2.73684C18.6316 2.73684 21.8947 4.10526 24.3158 6.63158C24.8421 7.15789 25.7368 7.21053 26.2632 6.68421C26.7895 6.15789 26.8421 5.26316 26.3158 4.73684C23.3684 1.68421 19.421 0 15.1579 0C10.8947 0 6.94736 1.68421 4 4.73684C3.47368 5.26316 3.47368 6.15789 4.05263 6.68421C4.31579 6.94737 4.68421 7.05263 5 7.05263Z" fill="#E40000"/>
</svg>
