<svg width="37" height="50" viewBox="0 0 37 50" fill="none" xmlns="http://www.w3.org/2000/svg">
<path d="M25.6 1.46667C24.6666 0.516667 23.4 0 22.0667 0H6.66667C2.9833 0 0 2.9833 0 6.66667V43.3333C0 47.0166 2.9833 50 6.66667 50H30C33.6834 50 36.6667 47.0166 36.6667 43.3333V14.6C36.6667 13.2666 36.15 12.0166 35.2 11.0667L25.6 1.46667ZM30.7833 38.45C30.7833 41.2166 28.5333 43.45 25.7833 43.45H10.8834C8.13335 43.45 5.88338 41.2166 5.88338 38.45V28.3333C5.88338 25.5833 8.13335 23.3333 10.8834 23.3333H25.7833C28.5333 23.3333 30.7833 25.5833 30.7833 28.3333V38.45Z" fill="black"/>
<path d="M24.5166 40.1168H25.7832C26.6999 40.1168 27.4499 39.3667 27.4499 38.4501V35.0667H24.5166V40.1168Z" fill="black"/>
<path d="M9.21672 38.4501C9.21672 39.3667 9.96663 40.1168 10.8834 40.1168H21.1834V35.0667H9.21672V38.4501Z" fill="black"/>
<path d="M12.15 26.6667H10.8834C9.96663 26.6667 9.21672 27.4167 9.21672 28.3334V31.7333H12.15V26.6667Z" fill="black"/>
<path d="M25.7834 26.6667H15.4834V31.7333H27.45V28.3334C27.45 27.4167 26.7001 26.6667 25.7834 26.6667Z" fill="#F31822"/>
</svg>
