<svg width="43" height="50" viewBox="0 0 43 50" fill="none" xmlns="http://www.w3.org/2000/svg">
<path d="M31.7308 10.7212V2.88462C31.7285 2.12025 31.4239 1.38784 30.8834 0.847347C30.3429 0.30686 29.6105 0.00222979 28.8462 0H2.88462C2.12025 0.00222979 1.38784 0.30686 0.847348 0.847347C0.30686 1.38784 0.00222979 2.12025 0 2.88462V47.1154C0.00222979 47.8797 0.30686 48.6122 0.847348 49.1527C1.38784 49.6931 2.12025 49.9978 2.88462 50H28.8462C29.6105 49.9978 30.3429 49.6931 30.8834 49.1527C31.4239 48.6122 31.7285 47.8797 31.7308 47.1154V35.4327C34.6775 34.9728 37.3629 33.4749 39.3024 31.2093C41.2419 28.9436 42.3078 26.0594 42.3078 23.0769C42.3078 20.0945 41.2419 17.2103 39.3024 14.9446C37.3629 12.6789 34.6775 11.181 31.7308 10.7212ZM19.2308 46.1538H12.5C12.245 46.1538 12.0004 46.0525 11.8201 45.8722C11.6398 45.6919 11.5385 45.4473 11.5385 45.1923C11.5385 44.9373 11.6398 44.6927 11.8201 44.5124C12.0004 44.3321 12.245 44.2308 12.5 44.2308H19.2308C19.4858 44.2308 19.7304 44.3321 19.9107 44.5124C20.091 44.6927 20.1923 44.9373 20.1923 45.1923C20.1923 45.4473 20.091 45.6919 19.9107 45.8722C19.7304 46.0525 19.4858 46.1538 19.2308 46.1538ZM27.8846 41.3462C27.8839 41.6009 27.7823 41.8451 27.6021 42.0252C27.422 42.2054 27.1779 42.3069 26.9231 42.3077H4.80769C4.55291 42.3069 4.30878 42.2054 4.12862 42.0252C3.94846 41.8451 3.84691 41.6009 3.84615 41.3462V4.80769C3.84691 4.55291 3.94846 4.30878 4.12862 4.12862C4.30878 3.94846 4.55291 3.84691 4.80769 3.84615H26.9231C27.1779 3.84691 27.422 3.94846 27.6021 4.12862C27.7823 4.30878 27.8839 4.55291 27.8846 4.80769V10.7404C24.9392 11.1955 22.2539 12.6894 20.314 14.952C18.3742 17.2146 17.3078 20.0966 17.3078 23.0769C17.3078 26.0573 18.3742 28.9393 20.314 31.2019C22.2539 33.4645 24.9392 34.9584 27.8846 35.4135V41.3462ZM36.2596 24.9327C35.9563 25.9874 35.4001 26.952 34.6394 27.7429C33.8786 28.5339 32.9363 29.1271 31.8942 29.4712C31.2216 29.6958 30.5169 29.8095 29.8077 29.8077C28.2063 29.8077 26.6575 29.2365 25.4395 28.1968C24.2215 27.1572 23.4143 25.7172 23.1628 24.1357C22.9114 22.5542 23.2323 20.9349 24.0678 19.5688C24.9034 18.2026 26.1987 17.1793 27.7212 16.6827C28.5829 16.3964 29.4942 16.2897 30.3987 16.3691C31.3033 16.4484 32.182 16.7122 32.9808 17.1442C33.0922 17.2034 33.1909 17.284 33.2711 17.3813C33.3513 17.4787 33.4116 17.5909 33.4484 17.7116C33.4852 17.8323 33.4978 17.959 33.4856 18.0846C33.4733 18.2102 33.4364 18.3321 33.377 18.4434C33.3176 18.5547 33.2368 18.6531 33.1392 18.7331C33.0417 18.8132 32.9293 18.8731 32.8085 18.9097C32.6878 18.9462 32.561 18.9585 32.4354 18.946C32.3099 18.9334 32.1881 18.8962 32.0769 18.8365C31.5058 18.5283 30.8775 18.3403 30.2309 18.2841C29.5844 18.2278 28.9331 18.3046 28.3173 18.5096C27.5519 18.7585 26.8612 19.1956 26.3088 19.7809C25.7564 20.3662 25.3598 21.081 25.1556 21.8595C24.9514 22.638 24.946 23.4553 25.14 24.2365C25.3339 25.0176 25.7211 25.7375 26.2658 26.33C26.8105 26.9225 27.4953 27.3687 28.2574 27.6276C29.0195 27.8865 29.8344 27.9497 30.6273 27.8116C31.4202 27.6734 32.1657 27.3383 32.7953 26.837C33.4249 26.3356 33.9185 25.6841 34.2308 24.9423L33.2019 24.9519L35.2885 21.2885L37.4231 24.9231L36.2596 24.9327Z" fill="black"/>
</svg>
