<svg width="50" height="50" viewBox="0 0 50 50" fill="none" xmlns="http://www.w3.org/2000/svg">
<path d="M25 0C11.1667 0 0 11.1667 0 25C0 38.8333 11.1667 50 25 50C38.8333 50 50 38.8333 50 25C50 11.1667 38.8333 0 25 0ZM29.7778 16.1111H33.8889C34.5 16.1111 35 16.6111 35 17.2222C35 17.8333 34.5 18.3333 33.8889 18.3333H30C30 18.5 30 18.6667 30 18.8889C30 19.3333 30.0556 22.1667 27.6667 24.5C25.7778 26.3333 22.9444 27.3333 19.1667 27.3333L28.8889 38.5C29.2778 38.9444 29.2222 39.6667 28.7778 40.0556C28.5556 40.2222 28.3333 40.3333 28.0556 40.3333C27.7222 40.3333 27.4444 40.2222 27.2222 39.9444L15.8333 26.8333C15.5556 26.5 15.5 26 15.6667 25.6111C15.8889 25.2222 16.2778 24.9444 16.7778 25C21.1111 25.3889 24.3333 24.6667 26.1667 22.8889C27.8889 21.1667 27.8333 19 27.8333 19V18.9444C27.8333 18.7778 27.8333 18.5556 27.8333 18.3889H16.6667C16.0556 18.3889 15.5556 17.8889 15.5556 17.2778C15.5556 16.6667 16.0556 16.1667 16.6667 16.1667H27.5C26.6111 12.3333 23.9444 12.2778 23.8889 12.2778H16.6667C16.0556 12.2778 15.5556 11.7778 15.5556 11.1667C15.5556 10.5556 16.0556 10.0556 16.6667 10.0556H33.8889C34.5 10.0556 35 10.5556 35 11.1667C35 11.7778 34.5 12.2778 33.8889 12.2778H28.1111C28.8333 13.1111 29.4444 14.3889 29.7778 16.1111Z" fill="black"/>
</svg>
