<svg width="60" height="50" viewBox="0 0 60 50" fill="none" xmlns="http://www.w3.org/2000/svg">
<path d="M56.25 42.1877C56.25 42.6021 56.0854 42.9996 55.7924 43.2926C55.4993 43.5856 55.1019 43.7502 54.6875 43.7502H31.25V46.8752H54.6875C55.9307 46.8752 57.123 46.3814 58.0021 45.5023C58.8811 44.6232 59.375 43.4309 59.375 42.1877V10.9377H56.25V42.1877Z" fill="black"/>
<path d="M1.5625 50C1.91452 49.9956 2.25517 49.8747 2.53125 49.6562L17.5625 37.8438C17.8335 37.6162 18.1775 37.4942 18.5313 37.5H45.3125C46.5557 37.5 47.748 37.0061 48.6271 36.1271C49.5061 35.248 50 34.0557 50 32.8125V4.6875C50 3.4443 49.5061 2.25201 48.6271 1.37294C47.748 0.49386 46.5557 0 45.3125 0H4.6875C3.4443 0 2.25202 0.49386 1.37294 1.37294C0.493864 2.25201 3.13005e-06 3.4443 3.13005e-06 4.6875V48.4375C-0.000582923 48.7303 0.081139 49.0175 0.235849 49.2661C0.390559 49.5147 0.61203 49.7149 0.875003 49.8438C1.09199 49.9396 1.32542 49.9926 1.5625 50ZM3.125 28.7812V4.6875C3.125 4.2731 3.28962 3.87567 3.58265 3.58265C3.87567 3.28962 4.2731 3.125 4.6875 3.125H45.3125C45.7269 3.125 46.1243 3.28962 46.4174 3.58265C46.7104 3.87567 46.875 4.2731 46.875 4.6875V32.8125C46.875 33.2269 46.7104 33.6243 46.4174 33.9174C46.1243 34.2104 45.7269 34.375 45.3125 34.375H18.5313C17.4768 34.3673 16.4514 34.7201 15.625 35.375L3.125 45.2187V28.7812Z" fill="black"/>
<path d="M12.5 21.875C14.2259 21.875 15.625 20.4759 15.625 18.75C15.625 17.0241 14.2259 15.625 12.5 15.625C10.7741 15.625 9.375 17.0241 9.375 18.75C9.375 20.4759 10.7741 21.875 12.5 21.875Z" fill="#E40000"/>
<path d="M25 21.875C26.7259 21.875 28.125 20.4759 28.125 18.75C28.125 17.0241 26.7259 15.625 25 15.625C23.2741 15.625 21.875 17.0241 21.875 18.75C21.875 20.4759 23.2741 21.875 25 21.875Z" fill="#E40000"/>
<path d="M37.5 21.875C39.2259 21.875 40.625 20.4759 40.625 18.75C40.625 17.0241 39.2259 15.625 37.5 15.625C35.7741 15.625 34.375 17.0241 34.375 18.75C34.375 20.4759 35.7741 21.875 37.5 21.875Z" fill="#E40000"/>
</svg>
