<svg width="44" height="50" viewBox="0 0 44 50" fill="none" xmlns="http://www.w3.org/2000/svg">
<path d="M13.527 25.0267C13.8526 25.0267 14.1782 24.9027 14.4262 24.654C14.9229 24.1574 14.9229 23.3523 14.4262 22.8557C12.5045 20.934 11.4463 18.3789 11.4463 15.661C11.4463 12.9432 12.5045 10.3881 14.4262 8.46636C14.9229 7.96972 14.9229 7.16466 14.4262 6.66802C13.9302 6.17137 13.1239 6.17137 12.6279 6.66802C10.2254 9.06984 8.90271 12.264 8.90271 15.661C8.90271 19.058 10.2254 22.2522 12.6279 24.654C12.8759 24.9027 13.2014 25.0267 13.527 25.0267Z" fill="#E40000"/>
<path d="M8.13135 29.1508C4.5283 25.5484 2.54363 20.7575 2.54363 15.6613C2.54363 10.5658 4.5283 5.7755 8.13135 2.17181C8.628 1.67516 8.628 0.870104 8.13135 0.37346C7.63471 -0.123184 6.82901 -0.123184 6.33301 0.37346C2.24921 4.45726 0 9.88664 0 15.6613C0 21.4373 2.24921 26.866 6.33237 30.9492C6.58101 31.1978 6.90596 31.3218 7.23154 31.3218C7.55713 31.3218 7.88271 31.1978 8.13135 30.9492C8.628 30.4525 8.628 29.6468 8.13135 29.1508Z" fill="#E40000"/>
<path d="M28.8149 24.654C29.0636 24.9026 29.3885 25.0266 29.7141 25.0266C30.0397 25.0266 30.3646 24.9026 30.6133 24.6546C33.0164 22.2522 34.3391 19.0586 34.3391 15.661C34.3391 12.2633 33.0164 9.06981 30.6139 6.66735C30.1173 6.17134 29.3122 6.17071 28.8156 6.66735C28.3189 7.16399 28.3189 7.96905 28.8156 8.46633C30.7373 10.388 31.7954 12.9431 31.7954 15.661C31.7954 18.3789 30.7373 20.9339 28.8149 22.855C28.3183 23.3523 28.3183 24.1574 28.8149 24.654Z" fill="#E40000"/>
<path d="M36.9087 0.372483C36.412 -0.124161 35.607 -0.124161 35.1103 0.372483C34.6137 0.869127 34.6137 1.67419 35.1103 2.17083C38.7134 5.77452 40.6981 10.5654 40.6981 15.661C40.6981 20.7571 38.7134 25.5474 35.1103 29.1505C34.6137 29.6465 34.6137 30.4522 35.1103 30.9488C35.359 31.1975 35.6839 31.3215 36.0095 31.3215C36.3351 31.3215 36.66 31.1975 36.9087 30.9488C40.9925 26.8657 43.2417 21.4363 43.2417 15.661C43.2417 9.88566 40.9925 4.45628 36.9087 0.372483Z" fill="#E40000"/>
<path d="M22.8927 22.9911V19.2545C24.3738 18.7299 25.4364 17.3214 25.4364 15.661C25.4364 13.5536 23.7283 11.8456 21.6209 11.8456C19.5135 11.8456 17.8055 13.5536 17.8055 15.661C17.8055 17.3214 18.8681 18.7306 20.3491 19.2545V22.9911L7.76512 48.1591C7.51393 48.6621 7.62204 49.27 8.03156 49.6554C8.27384 49.8824 8.58671 50 8.90275 50C9.12151 50 9.34217 49.9435 9.54121 49.8277L21.6209 42.8143L33.7006 49.8284C33.8997 49.9435 34.1197 50 34.3384 50C34.6545 50 34.968 49.8824 35.2096 49.6554C35.6198 49.2707 35.7279 48.6621 35.4767 48.1591L22.8927 22.9911ZM26.9441 36.7821L22.8927 39.1343V28.68L26.9441 36.7821ZM20.3491 39.1343L16.2977 36.7821L20.3491 28.68V39.1343ZM11.9424 45.4927L15.1582 39.0618L19.0881 41.3441L11.9424 45.4927ZM24.1537 41.3434L28.0836 39.0612L31.2994 45.4927L24.1537 41.3434Z" fill="black"/>
</svg>
