<svg width="54" height="50" viewBox="0 0 54 50" fill="none" xmlns="http://www.w3.org/2000/svg">
<path fill-rule="evenodd" clip-rule="evenodd" d="M5.76923 7.69226C2.58558 7.69226 0 10.2778 0 13.4615C0 16.6451 2.58558 19.2307 5.76923 19.2307C8.95288 19.2307 11.5385 16.6451 11.5385 13.4615C11.5385 10.2778 8.95288 7.69226 5.76923 7.69226ZM5.76923 11.5384C6.83077 11.5384 7.69231 12.4 7.69231 13.4615C7.69231 14.523 6.83077 15.3846 5.76923 15.3846C4.70769 15.3846 3.84615 14.523 3.84615 13.4615C3.84615 12.4 4.70769 11.5384 5.76923 11.5384Z" fill="#E40000"/>
<path fill-rule="evenodd" clip-rule="evenodd" d="M48.0769 7.69226C44.8933 7.69226 42.3077 10.2778 42.3077 13.4615C42.3077 16.6451 44.8933 19.2307 48.0769 19.2307C51.2606 19.2307 53.8462 16.6451 53.8462 13.4615C53.8462 10.2778 51.2606 7.69226 48.0769 7.69226ZM48.0769 11.5384C49.1385 11.5384 50 12.4 50 13.4615C50 14.523 49.1385 15.3846 48.0769 15.3846C47.0154 15.3846 46.1538 14.523 46.1538 13.4615C46.1538 12.4 47.0154 11.5384 48.0769 11.5384Z" fill="#E40000"/>
<path fill-rule="evenodd" clip-rule="evenodd" d="M26.9231 0C23.7394 0 21.1538 2.58558 21.1538 5.76923C21.1538 8.95288 23.7394 11.5385 26.9231 11.5385C30.1067 11.5385 32.6923 8.95288 32.6923 5.76923C32.6923 2.58558 30.1067 0 26.9231 0ZM26.9231 3.84615C27.9846 3.84615 28.8462 4.70769 28.8462 5.76923C28.8462 6.83077 27.9846 7.69231 26.9231 7.69231C25.8615 7.69231 25 6.83077 25 5.76923C25 4.70769 25.8615 3.84615 26.9231 3.84615Z" fill="#E40000"/>
<path fill-rule="evenodd" clip-rule="evenodd" d="M18.4433 25.6375L25.1375 8.90092C25.4298 8.17111 26.1366 7.69226 26.9231 7.69226C27.7096 7.69226 28.4164 8.17111 28.7087 8.90092L35.4029 25.6375L46.825 15.8471C47.4366 15.324 48.3087 15.2355 49.0116 15.6269C49.7145 16.0182 50.1 16.8048 49.9779 17.6L46.1318 42.6C45.9702 43.649 44.9875 44.3701 43.9385 44.2086C42.8895 44.0471 42.1683 43.0644 42.3298 42.0153L45.3866 22.1461L35.8673 30.3067C35.3962 30.7096 34.7587 30.8615 34.1568 30.7134C33.5539 30.5653 33.0606 30.1365 32.8298 29.5605L26.9231 14.7932L21.0164 29.5605C20.7856 30.1365 20.2923 30.5653 19.6894 30.7134C19.0875 30.8615 18.45 30.7096 17.9789 30.3067L8.45964 22.1461L11.2654 40.3846H36.5385C37.6 40.3846 38.4616 41.2461 38.4616 42.3076C38.4616 43.3692 37.6 44.2307 36.5385 44.2307H9.61541C8.66637 44.2307 7.85869 43.5384 7.71445 42.6L3.8683 17.6C3.74619 16.8048 4.13176 16.0182 4.83464 15.6269C5.53753 15.2355 6.40965 15.324 7.02118 15.8471L18.4433 25.6375Z" fill="black"/>
<path fill-rule="evenodd" clip-rule="evenodd" d="M11.5385 50H42.3077C43.3692 50 44.2308 49.1384 44.2308 48.0769C44.2308 47.0153 43.3692 46.1538 42.3077 46.1538H11.5385C10.4769 46.1538 9.61539 47.0153 9.61539 48.0769C9.61539 49.1384 10.4769 50 11.5385 50Z" fill="black"/>
</svg>
